<?xml version="1.0" standalone="no"?>
<!DOCTYPE svg PUBLIC "-//W3C//DTD SVG 20010904//EN"
 "http://www.w3.org/TR/2001/REC-SVG-20010904/DTD/svg10.dtd">
<svg version="1.0" xmlns="http://www.w3.org/2000/svg"
 width="512.000000pt" height="512.000000pt" viewBox="0 0 512.000000 512.000000"
 preserveAspectRatio="xMidYMid meet">
<metadata>
Created by potrace 1.11, written by Peter Selinger 2001-2013
</metadata>
<g transform="translate(0.000000,512.000000) scale(0.100000,-0.100000)"
fill="#000000" stroke="none">
<path d="M0 2560 l0 -2560 2560 0 2560 0 0 2560 0 2560 -2560 0 -2560 0 0
-2560z m2285 2309 c55 -16 111 -74 126 -132 l11 -47 189 0 189 0 0 27 c0 33
42 105 73 126 13 8 42 21 65 28 89 26 201 -41 219 -133 l9 -43 319 -6 c187 -3
333 -9 351 -16 99 -35 188 -114 230 -206 l29 -62 0 -1585 0 -1585 -27 -57
c-60 -129 -167 -202 -323 -221 l-95 -12 111 -167 c101 -152 111 -170 111 -212
0 -27 -7 -58 -17 -72 -37 -57 -124 -81 -183 -50 -18 9 -85 100 -191 260 l-164
246 -711 0 -711 0 -160 -242 c-103 -156 -170 -247 -190 -259 -66 -41 -156 -14
-189 56 -31 65 -19 97 102 278 l111 164 -80 7 c-176 15 -291 95 -351 244 l-23
57 -3 1525 c-2 1071 0 1544 8 1589 26 153 129 268 275 306 47 12 120 15 356
15 l296 0 6 36 c11 66 64 123 135 144 38 12 52 11 97 -1z"/>
<path d="M2259 4481 c-39 -39 -41 -100 -4 -136 l24 -25 329 0 329 0 21 23 c25
26 30 101 9 128 -28 37 -50 39 -367 39 l-312 0 -29 -29z"/>
<path d="M1585 3746 c-40 -17 -82 -67 -95 -114 -8 -25 -10 -202 -8 -552 3
-576 1 -554 75 -605 l38 -25 1011 0 1011 0 33 23 c18 12 43 35 54 50 21 28 21
38 23 570 l3 542 -23 39 c-13 25 -39 48 -66 63 l-44 23 -991 0 c-801 -1 -997
-3 -1021 -14z m680 -369 c79 -44 108 -149 62 -218 -12 -19 -42 -44 -65 -57
-31 -18 -42 -30 -42 -48 0 -23 -3 -24 -65 -24 l-65 0 0 70 0 70 34 0 c66 0
114 74 72 109 -23 19 -70 9 -81 -16 -9 -21 -17 -23 -77 -23 -65 0 -68 1 -68
24 0 34 40 88 85 113 56 32 154 32 210 0z m440 0 c79 -44 108 -149 62 -218
-12 -19 -42 -44 -65 -57 -31 -18 -42 -30 -42 -48 0 -23 -3 -24 -65 -24 l-65 0
0 70 0 70 34 0 c66 0 114 74 72 109 -23 19 -70 9 -81 -16 -9 -21 -17 -23 -77
-23 -65 0 -68 1 -68 24 0 34 40 88 85 113 56 32 154 32 210 0z m450 0 c79 -44
108 -149 62 -218 -12 -19 -42 -44 -65 -57 -31 -18 -42 -30 -42 -48 0 -23 -3
-24 -65 -24 l-65 0 0 70 0 70 34 0 c66 0 114 74 72 109 -23 19 -70 9 -81 -16
-9 -21 -17 -23 -77 -23 -65 0 -68 1 -68 24 0 34 40 88 85 113 56 32 154 32
210 0z m-940 -402 c53 -52 18 -135 -57 -135 -50 0 -78 28 -78 77 0 76 82 112
135 58z m440 0 c53 -52 18 -135 -57 -135 -50 0 -78 28 -78 77 0 76 82 112 135
58z m450 0 c53 -52 18 -135 -57 -135 -50 0 -78 28 -78 77 0 76 82 112 135 58z"/>
<path d="M1674 1872 c-58 -21 -94 -46 -134 -97 -40 -50 -54 -98 -54 -175 1
-121 85 -231 202 -264 73 -20 82 -20 156 1 113 31 206 153 206 268 0 53 -28
130 -65 178 -67 88 -204 128 -311 89z"/>
<path d="M3359 1875 c-62 -20 -136 -87 -165 -150 -34 -72 -33 -172 2 -243 49
-98 143 -156 254 -155 113 0 199 53 249 155 72 142 15 304 -131 379 -52 26
-150 33 -209 14z"/>
</g>
</svg>
